<?xml version="1.0" encoding="utf-8"?>
<!-- Generator: Adobe Illustrator 25.0.1, SVG Export Plug-In . SVG Version: 6.00 Build 0)  -->
<svg version="1.1" id="Layer_1" xmlns="http://www.w3.org/2000/svg" xmlns:xlink="http://www.w3.org/1999/xlink" x="0px" y="0px"
	 viewBox="0 0 1000 400" style="enable-background:new 0 0 1000 400;" xml:space="preserve">
	 
<g>
	<g>
		<path d="M646.23,100.38c29.25,1.28,86.31,8.98,114.66,14.53c20,3.91,79.27,18.8,79.27,18.8s-46.17-16.36-61.99-20.32
			c-23.13-5.82-93.98-16.77-93.98-16.77s0.72-5.85,0-7.61c-2.27-5.58-38.08-10.65-38.08-10.65s-61.99-35.13-86.13-39.9
			C525.77,31.68,382.19,38,382.19,38l-0.18,1.22l91.68-0.06c0,0,63.9-0.42,84.7,4.84c14.42,3.61,32.2,10.09,54.29,24.95
			c11.37,7.64,25.55,23.22,25.55,23.22l-198.38,2.18l-39.19-0.06l-11.01-27.38l-0.6,0.19l7.62,27.55l-10.65-0.57
			c0,0-9.73-32.59-15.55-42.29c-1.55-2.6-4.32-5.76-8.27-7.42c-4.61-1.94-17.82-1.3-17.82-1.3l0.04,1.3c0,0,12.13-0.25,15.49,1.99
			c2.81,1.88,5.43,4.45,6.89,7.4c1.58,3.1,5.18,11.56,3.58,15.37c-1.15,2.76-6.53,9.21-6.53,9.21l1.4,1.48l8.44-8.97l8.33,23.62
			l-33.43,0.78c0,0-3.19-4.92-4.92-5.55c-4.15-1.46-24.92-1.07-28.47,0c-1.13,0.36-3.28,3.49-3.28,3.49s-7.07,0.57-9.1-0.12
			c-1.67-0.57-4.33-2.21-4.81-3.94c-0.42-1.43,0.98-4.51,1.91-5.7c2.92-3.85,10.62-7.04,15.13-8.33c6.48-1.82,21.19-3.07,28.29-2.87
			c3.25,0.12,6.8,0.06,8.39,1.55c1.46,1.43,2.6,5.82,1.76,6.77c-2.82,3.21-15.88,4-15.88,4l-0.03,0.39c0,0,16.65,0.87,19.67-2.92
			c2.03-2.57-0.63-9.28-2.92-11.61c-1.88-1.94-7.16-1.73-10.54-1.91c-7.67-0.45-20.75,0.75-28.32,1.97
			c-10.23,1.64-23.07,9.43-23.07,20.32c0,6.72,7.37,8.86,18.86,9.01c7.85,0.09,31.31,0.36,31.31,0.36l-16.46,24.45l0.51,0.33
			c0,0,14.05-11.33,30.81-14.76c25.22-5.16,67.14-0.96,86.48,1.06c33.01,3.45,53.87,11.64,72.37,18.65
			c26.14,9.91,78.46,40.53,104.04,51.81c9.97,4.42,29.9,14.39,40.77,15.64c15.73,1.79,80.46,3.1,80.46,3.1s9.7,0.24,11.82-2.98
			c2.87-4.33-2.39-8.12-2.39-8.12s-37.84-21.31-50.71-27.37c-14.89-7.04-45.99-18.44-61.84-22.92
			c-13.7-3.91-54.32-12.45-54.32-12.45s-103.45-16.39-138.18-19.82c-16.33-1.61-65.54-3.55-65.54-3.55s14.18-2.48,56.2-4.6
			C488.53,96.08,586.78,97.75,646.23,100.38z M567.14,132.55c0,0,50.41,4.57,67.24,8.54c16.92,3.97,49.51,16.74,65.18,24.23
			c9.28,4.48,36.95,19.82,36.95,19.82l10.98,7.13c0,0,1.13,1.19,0.09,2.84c-0.87,1.37-4.21,1.31-4.21,1.31l-74.67-2.51
			c0,0-24.98-22.41-55.75-39.25c-10.03-5.49-37.16-16.86-46.05-20.53C566.12,133.81,566.3,132.67,567.14,132.55z M537.89,132.25
			c0.72-1.19,1.55-0.78,1.55-0.78s29.31,5.28,60.05,20.38c30.98,15.25,56.26,36.59,56.26,36.59s0.54,1.19,0,1.91
			c-0.72,0.96-3.04,0-3.04,0s-42.32-17.76-59.06-26.83c-19.28-10.42-55.75-29.76-55.75-29.76S537.71,132.55,537.89,132.25z"/>
		<path d="M775.6,103.26l0.03-0.48c0,0,48.61,3.11,64.52,6.8c9.15,2.12,27.17,8.49,35.05,13.59c5.51,3.56,18.8,17.15,18.8,17.15
			s54.04,25.23,67.18,37.34c6.1,5.62,6.46,14.5,6.86,19.84c0.7,9.39-3.26,36.55-3.26,36.55l-0.2-0.04c0,0,2.32-30.36-0.98-37.3
			c-2.48-5.21-10.16-4.57-10.16-4.57s-56.41,4.71-75.18,6.6c-20.48,2.07-61.82,7.08-80.77,16c-4.32,2.04-12.64,7.9-14.73,12.19
			c-3.9,7.99-2.54,35.31-2.54,35.31s-4.55-29.94-0.51-38.86c2.2-4.86,11.91-11,16.76-13.21c20-9.09,63.34-14.37,84.84-16.51
			c17.56-1.75,52.77-4.48,70.4-5.1c2.34-0.08,9.35,0.02,9.35,0.02s-0.89-5.78-2.73-7.72c-12.91-13.6-67.88-37.5-67.88-37.5
			s-15.23-14.33-21.34-18.16c-7.27-4.57-23.73-10.28-32-12.57C821.92,108.43,775.6,103.26,775.6,103.26z"/>
		<path d="M939.92,197.67c0,0,6.83-0.77,8.76,0.88c2.15,1.84,1.14,8.36,0.81,11.17c-1.68,14.38-10.04,30.66-16.19,39.72
			c-3.49,5.14-11.77,13.27-17.24,16.19c-11.34,6.06-49.45,12.86-49.45,12.86s-52.54,7.97-67.61,2.29
			c-6.26-2.36-9.12-8.16-11.94-14.22c-3.81-8.18-5.63-29.75-1.52-37.85c1.99-3.93,10.18-8.66,14.22-10.41
			c19.27-8.35,81.03-15.75,81.03-15.75l50.29-4.06l-62.87,11.43l-36.3,63.33c0,0-0.38,1.19,0.47,1.89c0.67,0.55,1.92,0.31,1.92,0.31
			l31.29-4.06c0,0,36.04-4.56,46.91-9.81c5.28-2.55,12.19-6.54,17.37-14.35c5.74-8.67,14.99-25.97,16.32-37.75
			c0.22-1.98,1.4-6.99-0.64-8.7c-1.34-1.13-5.59-1.19-5.59-1.19s-0.29,0.21-0.5-0.69C939.28,198.08,939.92,197.67,939.92,197.67z"/>
		<path d="M767.18,226.17l-71.3-2.03l-2.54,3.3l19.3,61.13c0,0,1.43,5.16,15.02,5.16c2.5,0,2.1-4.76,0.48-9.91
			c-3.28-10.43-14.85-32.04-11.68-42.16c1.03-3.29,7.94-5.45,11.11-6.79c9.52-4.04,37.91-4.64,39.43-5.91
			C767.59,228.47,767.18,226.17,767.18,226.17z"/>
		<path d="M676.83,224.14c0,0,0.51,0.35,0.51,1.27c0,0.72-0.51,1.27-0.51,1.27l-37.85,8.13l22.35,57.4l-3.43,1.52
			c0,0-26.51-2.93-34.16-7.11c-8.51-4.65-21.39-19.9-27.18-27.69c-4.41-5.93-14.22-18.52-14.22-25.91
			c0-9.91,11.68-11.25,11.68-11.25L676.83,224.14z"/>
		<path d="M633.33,145.27c0,0,8.14,0.9,10.99,1.78c13.88,4.28,41.02,14.83,54.1,21.15c6.4,3.09,24.57,14.29,24.57,14.29
			s0.32,0.69,0,1.24c-0.32,0.54-1.13,0.54-1.13,0.54l-31.06-15.5c0,0-0.11,4.15-1.02,5.08c-1.88,1.93-17.69,1.13-22.58,0.84
			c-0.78-0.05-1.34-0.74-1.25-1.52c0.34-2.75,0.95-8.75,0.08-11.16c-0.61-1.69-1.85-3.87-4.19-5.18c-2.24-1.25-5.28-1.64-7.24-1.02
			c-1.77,0.56-4.43,1.34-5.81,5.28c-0.95,2.72,0.06,8.52,0.06,8.52l-19.27-9.04l0.57-1.27c0,0,8.33,0.62,10.64-1.37
			c0.57-0.49,0.89-2.23,0.66-2.95c-1.06-3.33-8.32-8.89-8.32-8.89L633.33,145.27z"/>
		<path d="M934.05,299.21c-0.48-1.58-1.52-1.28-1.52-1.28s-73.72,26.68-123.23,34.41c-38.17,5.97-113.05,9.73-151.64,8.65
			c-25.67-0.72-102.1-10.3-102.1-10.3s1.13-53.33-24.77-111.26c-5.55-12.39-25.28-51.72-53.93-65.15
			c-29.82-13.97-49.84,6.6-49.84,6.6s-11.25-9.1-13.73-10.92c-4.06-2.95-9.88-3.43-9.88-3.43l-104.28-9.76c0,0-0.36,0.16-0.05,1.43
			c0.24,0.98,1.18,1.23,1.18,1.23l57.59,5.61l3.78,55.75c0,0,0.21,0.84,1.31,0.84c1.16,0,1.34-0.84,1.34-0.84l-1.91-40.08
			c0,0,25.61,4.78,33.81,2.45c4.72-1.34,15.22-10.51,15.22-10.51l13.22,10.6c0,0-28.26,27.1-33.36,68.07
			c-2.52,20.24-1.43,33.29-0.93,43.82c0.04,0.94-0.09,0.81-0.09,0.81l-113.08-45.78c0,0-1.88-0.78-3.04,1.64
			c-0.6,1.25,0.15,2.42,0.15,2.42l59.9,28.68l70.31,45.66c0,0,0.21,0.15,0.33-0.27c0.06-0.21,0-0.69-0.15-1.01
			c-2.45-5.55-16.17-27.07-10.41-74.49c3.09-25.46,20.95-46.2,34.8-57.15c11.04-8.77,28-16,43.3-12.93
			c10.8,2.17,17.34,10.62,19.19,13.19c0.15,0.21,0.15,0.57,0.12,0.72c-0.03,0.09-0.15,0.12-0.15,0.12s-27.79-11.2-54.83,5.76
			c-12.03,7.55-32.38,23.35-38.34,49.29c-4.35,18.94-9.55,96.5,60.13,112.35c7.2,1.64,17.55,1.85,17.55,1.85s0.3-0.06,0.54-0.42
			c0.18-0.3,0.18-0.54,0.18-0.54l5.22-74.31c0.03-0.36,0.21-0.69,0.54-0.87c1.55-0.96,6.39-4.15,9.13-9.16
			c1.91-3.49,2.57-10,2.72-12c0.03-0.36,0.24-0.69,0.57-0.87l17.52-10.09l14.56-9.25c0,0,0.66,1.04,1.25,2.48
			c0.78,1.94,0.63,2.69,0.63,2.69l-10.06,9.61l0.18,0.21l11.01-4.95c0,0,0.87,3.88,0.09,5.7c-0.96,2.3-5.58,5.13-7.64,6.51
			c-4.75,3.19-17.31,7.88-19.1,9.49c-1.1,0.98-0.81,4.63,0,5.85c3.1,4.78,21.52,20.83,27.43,21.58c2.39,0.33,7.37,0.78,9.91,1.01
			c0.93,0.09,1.64,0.78,1.79,1.67c0.72,4.83,2.92,19.7,3.79,25.13c0.3,1.85,1.52,5.97,1.4,9.01c-0.15,3.37-5.43,6.42-7.49,8
			c-5.82,4.48-22.62,14.12-22.62,14.12s-1.43,1.91,0.15,2.12c16.06,2.33,106.61,15.22,138.99,15.91
			c39.66,0.84,116.87-4.66,155.64-13.19c51.81-11.43,121.35-50.62,121.35-50.62S934.35,300.31,934.05,299.21z M468.25,340.58
			c0,0-4.91-0.49-6.91-0.84c-41.31-7.27-54.39-47.04-54.39-47.04l22.27,5.19c0,0,3.64,8.51,10.51,14.39
			c8.58,7.34,17.52,10.8,17.52,10.8s2.3-5.22,2.92-6.98c3.7-10.71,12.18-43.87,12.18-43.87l0.63,0.09L468.25,340.58z M481.75,244.2
			c0,0-8-19.94-8-42.41c0-5.1,0.21-20.2,0.21-20.2s-0.07-0.42,0.96-0.42c0.76,0,0.81,0.42,0.81,0.42s0.54,12.38,0.69,16.89
			c0.78,19.61,7.13,45.72,7.13,45.72H481.75z M500.43,196.3c-0.75,1.79-5.73,6.89-6.24,8.77c-3.52,13.28-3.55,41.42-3.55,41.42
			s-0.54,0.51-1.52,0.51c-0.81,0-1.52-0.51-1.52-0.51s-7.25-25.4-8.12-47.51c-0.15-3.7,0.27-12.65,0.33-16.35
			c0.03-0.27-0.01-0.62,0.22-0.89c0.2-0.23,0.47-0.18,0.47-0.18s5.52,1.43,10.65,4.65c6.15,3.88,8.36,6.54,8.36,6.54
			S501.15,194.51,500.43,196.3z M403.93,281.33c-0.18-0.12-0.24-0.48-0.24-0.48s-7.97-27.25-0.42-51.32
			c5.71-18.23,21.7-35.18,34.64-42.96c15.24-9.16,26.64-8.82,26.64-8.82l0.7,2.7c0,0-14.5,6.86-18.8,10.03
			c-7.37,5.46-5.34,13.28-3.04,16.89c9.13,14.42,28.95,36.83,28.95,36.83v3.31l-42.68-29.73l-1.25,2.03l21.97,19.34v2l-36.1-18.67
			l-1.36,3.18l4.57,5.31c0,0,0.03,19.61,1.28,26.56c1.16,6.63,6.83,6.39,6.83,6.39l35.81-7.79l1.01,1.61l-57.58,23.52
			C404.86,281.27,404.29,281.57,403.93,281.33z"/>
		<path d="M493.05,279.78c0,0-1.09-0.7-2.16-0.13c-0.7,0.37-1.1,0.62-1.26,1.37c0,0,1.41,35.72,1.27,42.67
			c-0.06,3.11-3.86,6.88-3.86,6.88s-1.34,1.94,4.25,0.67c5.37-1.22,15.12-5.09,19.67-8.19c5.1-3.46,13.61-9.21,13.53-14
			c-0.02-1.36-2.35-3.4-2.35-3.4L493.05,279.78z"/>
	</g>
	<g>
		<path d="M73.66,174.41c0-4.94-1.52-8.63-4.52-10.96c-2.94-2.29-7.59-3.45-13.81-3.45H31.88v8.86H37v40.58h-5.12v8.82h22.55v-8.82
			h-5.16v-14.5h8.77c5.28,0,9.24-1.2,11.77-3.58c2.55-2.39,3.84-6.12,3.84-11.08V174.41z M49.26,168.73h4.32
			c3.26,0,5.5,0.44,6.65,1.3c1.09,0.81,1.64,2.31,1.64,4.47v5.01c0,2.66-0.52,4.44-1.56,5.31c-1.08,0.9-3.28,1.35-6.56,1.35h-4.5
			V168.73z"/>
		<path d="M166.73,209.43v-12.51c0-3.07-0.87-5.37-2.57-6.83c-1.07-0.9-2.6-1.61-4.69-2.15c2.03-0.6,3.61-1.46,4.69-2.57
			c1.7-1.76,2.57-4.48,2.57-8.12v-3.73c0-4.89-1.46-8.45-4.33-10.51c-2.84-2.03-7.55-3.01-14.44-3.01H82v8.83h5.16l-11.79,40.59
			h-4.15v8.83h20.03v-8.83h-4.54l2.18-8.03h12.3l2.09,8.03H98.8v8.83h21.07v-8.83h-3.82l-11.61-40.59h25.88v40.59h-5.1v8.83h22.17
			v-8.83h-4.81v-17.34h4.69c3.82,0,5.43,0.6,6.12,1.1c0.93,0.66,1.37,2.06,1.37,4.12v20.95h17.07v-8.83H166.73z M91.49,193.61
			l3.82-14.95l3.64,14.95H91.49z M154.76,178.39c0,1.85-0.48,3.1-1.49,3.88c-1.07,0.84-2.87,1.25-5.31,1.25h-5.37v-14.8h4.6
			c3.82,0,5.46,0.6,6.18,1.07c0.93,0.66,1.4,1.91,1.4,3.73V178.39z"/>
		<path style="fill:#C22126;" d="M352.42,205.55v-43.3H327.8v10.68h5.79l-10.09,18.97l-0.19,9.29h17.51v4.35h-6.36v11.62h21.85v-11.62H352.42z
			 M341.1,180.3l-0.09,10.76h-5.36L341.1,180.3z"/>
		<path style="fill:#007E40;" d="M319.07,179.37v-17.4h-34.83v23.9l21.98,11.43v8.28h-10.39v-7.49h-11.59v7.73c0,6.26,5.09,11.35,11.35,11.35
			h10.87c6.26,0,11.35-5.09,11.35-11.35v-8.66c0-4.25-2.34-8.11-6.11-10.07l-15.87-8.26v-5.28h11.66v5.82H319.07z"/>
		<path d="M278.68,173.32c0-6.26-5.09-11.35-11.35-11.35h-11.4c-6.26,0-11.35,5.09-11.35,11.35v7.57h11.59v-7.33h10.93v3.24
			l-21.89,25.43v14.95h25.31c4.5,0,8.16-3.66,8.16-8.16v-10.67h-11.59v7.24h-9.42l21.01-24.49V173.32z"/>
		<path d="M217.46,168.84l-14.95,19.19c0,0,4.75-0.19,6.32,0c2.11,0.26,3.61,1.22,4.69,2.15c1.67,1.46,2.54,3.76,2.54,6.8v12.53
			h4.21v8.8h-21.31v-8.77h5.17v-12.15c0-2.06-0.44-3.52-1.4-4.15c-1.63-1.06-3.62-0.87-7.41-0.87h-3.51v17.14h4.81v8.74h-22.2v-8.74
			h5.13v-40.68h-5.13v-8.83h22.2v8.83h-4.81v16.5l12.92-16.5h-4.69v-8.83h22.51v8.83H217.46z"/>
	</g>
</g>
</svg>
