<?xml version="1.0" standalone="no"?>
<!DOCTYPE svg PUBLIC "-//W3C//DTD SVG 20010904//EN"
 "http://www.w3.org/TR/2001/REC-SVG-20010904/DTD/svg10.dtd">
<svg version="1.0" xmlns="http://www.w3.org/2000/svg"
 width="576.000000pt" height="685.000000pt" viewBox="0 0 576.000000 685.000000"
 preserveAspectRatio="xMidYMid meet">

<g transform="translate(0.000000,685.000000) scale(0.100000,-0.100000)"
fill="#000000" stroke="none">
<path d="M0 3425 l0 -3425 2880 0 2880 0 0 3425 0 3425 -2880 0 -2880 0 0
-3425z m2840 856 c188 -8 200 -11 434 -128 72 -35 157 -70 190 -77 86 -19 116
-33 116 -53 0 -15 18 -21 108 -36 206 -33 615 -137 600 -152 -2 -2 -62 12
-133 31 -245 65 -494 103 -805 125 -197 13 -1130 7 -1175 -8 -24 -8 -5 -11
100 -16 326 -18 947 -118 1165 -188 98 -32 246 -96 335 -145 105 -57 130 -77
122 -98 -6 -14 -29 -16 -185 -16 -251 0 -274 7 -627 183 -121 61 -240 120
-265 132 -140 69 -357 108 -610 109 l-165 1 -79 -37 c-43 -21 -80 -38 -82 -38
-3 0 11 24 31 52 19 29 35 56 35 60 0 5 -21 8 -47 9 -134 2 -196 26 -174 68
13 23 80 61 108 61 10 0 -5 -11 -33 -24 -28 -13 -54 -31 -57 -39 -9 -24 18
-40 55 -32 78 16 136 17 166 1 32 -16 96 -21 150 -10 l30 6 -15 37 c-20 48
-29 57 -46 42 -12 -9 -13 -5 -4 28 15 56 -13 102 -73 118 l-45 11 35 1 c62 2
78 -20 154 -211 10 -25 21 -38 34 -38 29 0 32 10 17 47 -24 57 -16 63 9 8 l22
-50 555 4 c305 1 556 5 558 7 8 7 -82 84 -150 129 -155 102 -230 114 -723 117
-177 0 -298 4 -271 8 67 9 430 10 635 1z m-832 -161 c17 -11 32 -26 32 -34 0
-13 -45 -27 -79 -25 -9 1 -3 4 13 8 71 15 26 50 -67 52 -49 2 -50 2 -17 9 60
13 84 11 118 -10z m2212 -160 c36 -6 102 -22 147 -35 66 -20 90 -34 127 -69
48 -47 205 -140 296 -176 97 -38 131 -87 129 -187 -2 -91 -17 -123 -18 -37 -1
40 -6 75 -13 82 -24 24 -252 6 -558 -44 -248 -40 -288 -60 -301 -152 l-6 -47
-2 42 c-2 89 37 120 192 154 152 32 425 69 518 69 101 0 149 8 149 24 0 24
-56 65 -130 97 -105 44 -166 80 -235 139 -97 82 -163 105 -376 134 -95 13 -99
14 -44 15 33 0 89 -4 125 -9z m-2245 -161 c238 -22 305 -36 345 -68 l37 -30
42 21 c86 42 176 23 270 -58 45 -39 151 -189 182 -259 32 -72 81 -258 100
-379 10 -65 20 -120 22 -122 2 -2 51 -11 108 -18 179 -25 464 -39 664 -33 327
10 554 50 883 154 62 19 115 33 117 31 9 -9 -141 -88 -245 -129 -278 -110
-397 -137 -700 -160 -166 -12 -539 -6 -683 12 -83 10 -291 46 -316 54 -8 3 11
21 46 45 79 52 87 71 67 159 -15 66 -17 69 -53 80 -47 14 -141 88 -141 111 0
10 21 28 50 44 54 29 70 50 70 90 0 37 -24 33 -99 -17 -45 -29 -68 -51 -74
-72 -6 -16 -18 -42 -28 -56 -13 -19 -21 -59 -28 -155 -6 -71 -13 -148 -17
-172 l-5 -42 -42 6 c-108 15 -235 112 -286 217 -57 117 -64 246 -19 364 31 84
121 171 208 201 70 24 134 28 190 12 l35 -9 -39 35 c-35 34 -42 36 -90 32
-155 -13 -293 -144 -338 -321 -19 -72 -20 -91 -10 -158 6 -42 20 -103 31 -135
11 -32 18 -60 16 -62 -1 -2 -88 49 -191 113 -104 64 -235 139 -291 167 -56 29
-101 53 -99 55 2 2 84 -26 182 -63 201 -74 313 -114 326 -114 4 0 8 40 8 89 0
116 21 182 94 296 73 115 77 132 42 162 l-27 23 -40 -27 c-36 -24 -45 -25
-119 -20 l-80 5 5 -81 c6 -105 -10 -42 -21 80 l-7 82 -36 5 c-20 4 -79 11
-130 16 -52 6 -97 13 -100 16 -4 3 19 3 49 0 30 -4 104 -11 165 -17z m-1297
-111 c16 -16 15 -110 0 -131 -8 -10 -31 -17 -58 -19 -38 -3 -45 -6 -48 -26 -3
-17 2 -25 17 -29 12 -3 21 -14 21 -24 0 -17 -8 -19 -65 -19 -58 0 -65 2 -65
20 0 11 7 20 15 20 12 0 15 17 15 90 0 73 -3 90 -15 90 -8 0 -15 9 -15 20 0
19 7 20 93 20 59 0 97 -4 105 -12z m440 -1 c7 -7 11 -52 10 -104 -1 -61 2 -97
11 -107 18 -22 5 -36 -34 -36 -34 0 -34 0 -37 53 -3 45 -6 52 -25 55 -20 3
-23 -1 -23 -32 0 -25 4 -36 15 -36 8 0 15 -9 15 -20 0 -18 -7 -20 -65 -20 -58
0 -65 2 -65 20 0 13 7 20 20 20 19 0 20 7 20 90 0 50 -3 90 -7 91 -42 4 -135
4 -138 -1 -6 -10 65 -174 80 -183 8 -4 15 -15 15 -22 0 -11 -14 -15 -55 -15
-48 0 -55 3 -55 19 0 11 5 21 12 23 21 7 -3 28 -32 28 -33 0 -48 -16 -31 -33
25 -25 12 -37 -39 -37 -43 0 -50 3 -50 20 0 11 6 20 14 20 7 0 27 36 46 85 35
90 37 100 18 100 -7 0 -14 8 -16 18 -3 16 11 17 191 17 147 0 197 -3 205 -13z
m172 -2 c0 -9 -7 -18 -15 -21 -9 -4 -15 -19 -15 -38 l1 -31 24 30 c16 20 22
37 19 52 -6 22 -3 23 51 23 48 0 56 -3 53 -17 -2 -9 -14 -20 -27 -23 -13 -3
-34 -21 -46 -40 l-22 -35 28 -12 c25 -10 29 -17 29 -53 0 -22 5 -40 10 -40 6
0 10 -9 10 -19 0 -19 -8 -20 -115 -20 -108 -1 -115 1 -115 19 0 11 7 20 15 20
12 0 15 17 15 90 0 73 -3 90 -15 90 -8 0 -15 9 -15 20 0 18 7 20 65 20 52 0
65 -3 65 -15z m360 -24 c20 -38 11 -63 -36 -105 -25 -22 -50 -49 -55 -58 -8
-15 -5 -18 15 -18 18 0 25 6 28 23 2 16 10 22 28 22 29 0 38 -31 20 -65 -10
-19 -19 -21 -83 -18 l-72 3 1 40 c0 36 7 47 52 89 29 27 52 53 52 57 0 5 -11
9 -24 9 -18 0 -25 -6 -28 -22 -2 -17 -10 -23 -28 -23 -29 0 -38 31 -20 64 9
18 20 21 75 21 53 0 66 -3 75 -19z m2960 -161 c-177 -35 -158 -24 -220 -127
-55 -92 -112 -190 -119 -206 -10 -23 322 36 403 71 54 25 96 85 127 185 17 54
19 70 9 82 -10 12 -9 15 5 15 45 0 -22 -204 -89 -269 -17 -16 -48 -37 -69 -46
-54 -22 -188 -53 -308 -70 -124 -18 -171 -18 -222 -4 -33 9 -42 18 -59 57 -14
31 -21 68 -21 112 -1 68 11 103 42 119 50 27 459 99 561 99 52 0 50 -1 -40
-18z m-1228 -92 c76 -1 143 -5 149 -9 6 -4 -24 -15 -67 -25 -44 -9 -82 -20
-86 -23 -3 -3 14 -64 38 -135 24 -71 42 -132 39 -134 -8 -9 -130 19 -173 40
-23 11 -57 39 -76 61 -50 62 -106 159 -106 184 0 36 37 55 95 49 28 -3 112 -7
187 -8z m533 -17 c68 -8 59 -12 -67 -31 -75 -11 -117 -27 -119 -44 -3 -31 5
-76 27 -148 13 -44 21 -84 18 -89 -9 -15 -40 -10 -57 9 -15 16 -87 265 -87
300 0 13 174 16 285 3z m-1180 -311 c22 -20 51 -43 64 -53 22 -14 23 -19 12
-39 -15 -29 -83 -73 -133 -86 -36 -10 -37 -9 -27 10 7 13 8 41 4 75 -4 30 -4
77 0 104 8 56 4 56 80 -11z"/>
<path d="M2891 3832 c7 -18 463 -245 539 -267 25 -8 25 -8 6 14 -27 30 -197
133 -281 171 -59 27 -150 58 -244 85 -14 4 -22 3 -20 -3z"/>
<path d="M3031 3835 c3 -2 68 -36 145 -75 76 -38 183 -102 238 -141 l99 -71
125 -10 c126 -10 232 -4 232 12 0 5 -39 30 -87 57 -174 94 -377 172 -531 202
-99 19 -229 35 -221 26z m464 -113 c104 -40 249 -111 242 -118 -2 -2 -34 9
-70 25 -36 16 -67 26 -69 21 -2 -4 -25 -10 -53 -12 l-50 -3 0 33 c0 56 -55 72
-82 23 -17 -28 -17 -29 -50 -13 -37 18 -43 32 -13 32 25 0 26 17 3 43 -18 19
-17 19 17 12 19 -4 76 -23 125 -43z"/>
<path d="M2460 3603 c-135 -47 -231 -177 -230 -316 1 -59 13 -143 22 -152 2
-2 61 19 130 48 70 28 125 53 123 55 -2 2 -40 -4 -85 -14 -58 -12 -84 -14 -92
-6 -6 6 -13 44 -16 84 -2 40 -9 79 -15 86 -22 27 4 22 84 -18 l84 -42 -40 42
c-45 48 -40 46 64 -22 40 -27 75 -47 77 -45 2 2 -11 21 -28 41 -44 50 -108
155 -108 177 0 16 43 59 86 86 27 17 0 15 -56 -4z"/>
<path d="M2600 3579 c0 -34 31 -272 36 -281 12 -20 22 7 29 79 4 43 14 98 22
121 8 24 13 45 11 46 -2 1 -22 14 -45 29 -51 32 -53 33 -53 6z"/>
<path d="M2581 3509 c-1 -42 17 -151 28 -162 7 -7 3 24 -22 173 -3 19 -5 16
-6 -11z"/>
<path d="M2539 3046 c-18 -58 -38 -106 -44 -106 -20 0 -89 55 -104 83 -10 19
-27 29 -63 37 -27 7 -51 10 -54 8 -9 -9 52 -86 101 -128 55 -48 152 -97 164
-84 9 10 44 285 37 291 -2 3 -19 -43 -37 -101z"/>
<path d="M580 3660 c-6 -4 -10 -22 -8 -41 2 -29 7 -34 31 -37 25 -3 27 -1 27
36 0 30 -4 41 -19 45 -10 2 -24 1 -31 -3z"/>
<path d="M1033 3663 c-7 -3 -13 -20 -13 -39 0 -30 3 -34 25 -34 22 0 25 4 25
34 0 33 -13 47 -37 39z"/>
<path d="M766 3564 c-9 -22 -8 -24 9 -24 8 0 15 6 15 14 0 22 -17 28 -24 10z"/>
<path d="M1267 3544 c-15 -16 -7 -62 12 -67 32 -8 47 8 35 40 -9 27 -33 41
-47 27z"/>
</g>
</svg>
