<svg height="512" viewBox="0 0 512 512" width="512" xmlns="http://www.w3.org/2000/svg"><g id="Solid"><path style="fill:#091a5e" d="m456.01 480-.01-32h-48v32z"/><path style="fill:#091a5e" d="m152 448v32h48.01l-.01-32z"/><path style="fill:#091a5e" d="m112 184a8 8 0 0 1 8-8h48a56 56 0 0 0 0-112h-88v176h32zm0-80a8 8 0 0 1 8-8h48a24 24 0 0 1 0 48h-48a8 8 0 0 1 -8-8z"/><path style="fill:#091a5e" d="m48 272h114.234l16.707-50.121a31.965 31.965 0 0 1 30.359-21.879h62.7v-152a16.019 16.019 0 0 0 -16-16h-208a16.019 16.019 0 0 0 -16 16v208a16.019 16.019 0 0 0 16 16zm16-216a8 8 0 0 1 8-8h96a72 72 0 0 1 0 144h-40v56a8 8 0 0 1 -8 8h-48a8 8 0 0 1 -8-8z"/><path style="fill:#091a5e" d="m163.099 320h281.802l-24-72h-233.802z"/><path style="fill:#091a5e" d="m398.7 216h-189.4a15.986 15.986 0 0 0 -15.181 10.941l-1.686 5.059h223.134l-1.686-5.059a15.986 15.986 0 0 0 -15.181-10.941z"/><path style="fill:#091a5e" d="m460.687 336h-313.374a19.314 19.314 0 0 0 -19.313 19.313v60.687a16.019 16.019 0 0 0 16 16h320a16.019 16.019 0 0 0 16-16v-60.687a19.314 19.314 0 0 0 -19.313-19.313zm-284.687 80a32 32 0 1 1 32-32 32.036 32.036 0 0 1 -32 32zm208-8h-160v-16h160zm0-32h-160v-16h160zm48 40a32 32 0 1 1 32-32 32.036 32.036 0 0 1 -32 32z"/><path style="fill:#091a5e" d="m176 120a8.009 8.009 0 0 0 -8-8h-40v16h40a8.009 8.009 0 0 0 8-8z"/><circle cx="432" cy="384" r="16"/><circle cx="176" cy="384" r="16"/></g></svg>