<?xml version="1.0" encoding="UTF-8"?>
<svg xmlns="http://www.w3.org/2000/svg" id="Layer_1" data-name="Layer 1" viewBox="0 0 512 512" width="512" height="512"><path style="fill:#091a5e" style="fill:#FF0000" d="M432.667,342.371a6,6,0,0,0-5.1-2.834l-85.959-.014c19.94-20.864,36.027-41.9,47.853-62.626,16.284-28.531,24.54-56.577,24.54-83.357,0-83.437-70.881-151.319-158-151.319S98,110.1,98,193.54c0,26.78,8.256,54.826,24.54,83.357,11.8,20.676,27.842,41.668,47.719,62.485l-92.057.153a6,6,0,0,0-5.206,3.036L5.784,460.808a6.215,6.215,0,0,0,.03,6.1A6.11,6.11,0,0,0,11,470H501a6.141,6.141,0,0,0,5.1-9.336ZM110,193.54C110,116.719,175.492,54.221,256,54.221s146.005,62.5,146.005,139.319c0,56.151-40.3,108.692-74.1,142.881A505.07,505.07,0,0,1,256,396.292a505.07,505.07,0,0,1-71.9-59.871C122.852,274.48,110,224.533,110,193.54ZM81.7,351.531l73.532-.121-9.046,34.64-84.046-.107ZM21.312,458l10.562-18.694,218.366.1L250.3,458Zm319.63-57a5.968,5.968,0,0,0-4.461,1.95,6.215,6.215,0,0,0-1.5,4.744L340.327,458H262.3l-.074-24.668a6.05,6.05,0,0,0-6-6.039l-217.53-.071,16.632-29.3,95.487.079h.007a5.975,5.975,0,0,0,5.806-4.456l11.017-42.168,14.485-.018a495.494,495.494,0,0,0,70.642,57.191,6,6,0,0,0,6.462,0,495.4,495.4,0,0,0,70.476-57.028l94.526.015,30.716,49.5-114-.031ZM352.4,458l-4.779-44.956,114.788.125L490.211,458Z"/><path style="fill:#091a5e"  d="M181.062,258l16.142,0a11.791,11.791,0,0,0,11.869-11.833L208.985,234h93.982l.089,12.4A11.747,11.747,0,0,0,315.011,258h.088l16.142,0a11.923,11.923,0,0,0,11.869-11.988l-.089-12.53A7.567,7.567,0,0,0,349,226.1v-14.16a8.431,8.431,0,0,0-4-6.807v-28.7a18.234,18.234,0,0,0-14.555-17.715l-11.166-30.387A18.8,18.8,0,0,0,301.638,116H210.361a18.8,18.8,0,0,0-17.641,12.337l-11.165,30.386A18.234,18.234,0,0,0,167,176.438v28.7a8.431,8.431,0,0,0-4,6.807V226.1a7.6,7.6,0,0,0,5.929,7.4l.09,12.74A11.877,11.877,0,0,0,180.974,258Zm133.994-11.578L314.968,234h16.069l.119,12.349ZM204,132.267A6.619,6.619,0,0,1,210.361,128h91.277A6.617,6.617,0,0,1,308,132.266L317.414,158H194.586Zm-25,44.171A6.628,6.628,0,0,1,185.362,170H326.638A6.628,6.628,0,0,1,333,176.438V204H288.537l-6.679-11.257A5.783,5.783,0,0,0,276.67,190H232.208a5.783,5.783,0,0,0-5.188,2.744L220.342,204H179ZM274.66,204H234.218l1.444-2h37.554ZM175,216H337v6H175Zm22,18,.119,12.271-16.1.229-.088-12.5Z"/><path style="fill:#091a5e" d="M231.256,187h46.792a6,6,0,0,0,0-12H231.256a6,6,0,1,0,0,12Z"/><path style="fill:#091a5e" d="M295.489,202h18.794a15,15,0,0,0,0-30h-15.4A6.152,6.152,0,0,0,293,177.03L289.6,194.7a6.182,6.182,0,0,0,1.262,5.04A6.082,6.082,0,0,0,295.489,202Zm8.35-18h10.444a3.008,3.008,0,0,1,0,6H302.76Z"/><path style="fill:#091a5e" d="M216.307,177.03a6.152,6.152,0,0,0-5.891-5.03h-15.4a15,15,0,0,0,0,30h18.793a6.039,6.039,0,0,0,4.628-2.222,6.227,6.227,0,0,0,1.263-5.062ZM195.021,190a3.008,3.008,0,0,1,0-6h10.444l1.079,6Z"/><path style="fill:#091a5e" d="M256,319.544a122,122,0,1,0-122-122A122.138,122.138,0,0,0,256,319.544Zm0-232a110,110,0,1,1-110,110A110.125,110.125,0,0,1,256,87.544Z"/><path style="fill:#091a5e" d="M234.786,371.95a6,6,0,1,0,7.381-9.461c-14.943-11.659-37.09-30.316-57.737-52.987a6,6,0,1,0-8.871,8.08C196.772,340.875,219.476,360,234.786,371.95Z"/><path style="fill:#091a5e" d="M173.739,297.217q-1.764-2.125-3.5-4.287a6,6,0,1,0-9.363,7.5q1.8,2.243,3.627,4.447a6,6,0,1,0,9.232-7.665Z"/></svg>
