<?xml version="1.0" encoding="iso-8859-1"?>
<!-- Generator: Adobe Illustrator 19.0.0, SVG Export Plug-In . SVG Version: 6.00 Build 0)  -->
<svg version="1.1" id="Capa_1" xmlns="http://www.w3.org/2000/svg" xmlns:xlink="http://www.w3.org/1999/xlink" x="0px" y="0px"
	 viewBox="0 0 512 512" style="enable-background:new 0 0 512 512;" xml:space="preserve">
<g>
	<g>
		<path style="fill:#091a5e" d="M256,0C147.78,0,59.733,92.638,59.733,206.507c0,111.59,182.468,295.228,190.234,303.002
			c1.664,1.655,3.849,2.492,6.033,2.492c2.185,0,4.369-0.836,6.033-2.5c7.765-7.765,190.234-191.403,190.234-302.993
			C452.267,92.638,364.22,0,256,0z M256,491.247c-31.906-33.092-179.2-191.002-179.2-284.74c0-104.457,80.393-189.44,179.2-189.44
			s179.2,84.983,179.2,189.44C435.2,300.203,287.898,458.146,256,491.247z"/>
	</g>
</g>
<g>
	<g>
		<path style="fill:#091a5e" d="M256,42.667c-84.693,0-153.6,68.907-153.6,153.6s68.907,153.6,153.6,153.6s153.6-68.907,153.6-153.6
			S340.693,42.667,256,42.667z M256,332.8c-75.29,0-136.533-61.252-136.533-136.533S180.71,59.733,256,59.733
			s136.533,61.252,136.533,136.533S331.29,332.8,256,332.8z"/>
	</g>
</g>
<g>
	<g>
		<path style="fill:#091a5e" d="M256,418.133c-4.71,0-8.533,3.823-8.533,8.533v76.8c0,4.71,3.823,8.533,8.533,8.533s8.533-3.823,8.533-8.533v-76.8
			C264.533,421.956,260.71,418.133,256,418.133z"/>
	</g>
</g>
<g>
	<g>
		<path style="fill:#091a5e" d="M273.067,136.533h-34.133c-4.71,0-8.533,3.823-8.533,8.533V179.2c0,4.71,3.823,8.533,8.533,8.533h34.133
			c14.114,0,25.6-11.486,25.6-25.6S287.181,136.533,273.067,136.533z M273.067,170.667h-25.6V153.6h25.6
			c4.71,0,8.533,3.831,8.533,8.533C281.6,166.835,277.777,170.667,273.067,170.667z"/>
	</g>
</g>
<g>
	<g>
		<path style="fill:#091a5e" d="M273.067,102.4H204.8c-4.71,0-8.533,3.823-8.533,8.533V281.6c0,4.71,3.823,8.533,8.533,8.533h34.133
			c4.71,0,8.533-3.823,8.533-8.533v-59.733h25.6c32.939,0,59.733-26.795,59.733-59.733S306.005,102.4,273.067,102.4z M273.067,204.8
			h-34.133c-4.71,0-8.533,3.823-8.533,8.533v59.733h-17.067v-153.6h59.733c23.526,0,42.667,19.14,42.667,42.667
			C315.733,185.66,296.593,204.8,273.067,204.8z"/>
	</g>
</g>
<g>
	<g>
		<path style="fill:#091a5e" d="M503.467,494.933h-34.133c-4.71,0-8.533,3.823-8.533,8.533s3.823,8.533,8.533,8.533h34.133
			c4.71,0,8.533-3.823,8.533-8.533S508.177,494.933,503.467,494.933z"/>
	</g>
</g>
<g>
	<g>
		<path style="fill:#091a5e" d="M204.8,494.933H8.533c-4.71,0-8.533,3.823-8.533,8.533S3.823,512,8.533,512H204.8c4.71,0,8.533-3.823,8.533-8.533
			S209.51,494.933,204.8,494.933z"/>
	</g>
</g>
<g>
	<g>
		<path style="fill:#091a5e" d="M409.6,494.933H307.2c-4.71,0-8.533,3.823-8.533,8.533S302.49,512,307.2,512h102.4c4.71,0,8.533-3.823,8.533-8.533
			S414.31,494.933,409.6,494.933z"/>
	</g>
</g>
<g>
</g>
<g>
</g>
<g>
</g>
<g>
</g>
<g>
</g>
<g>
</g>
<g>
</g>
<g>
</g>
<g>
</g>
<g>
</g>
<g>
</g>
<g>
</g>
<g>
</g>
<g>
</g>
<g>
</g>
</svg>
