<svg id="Capa_1" enable-background="new 0 0 512 512" height="512" viewBox="0 0 512 512" width="512" xmlns="http://www.w3.org/2000/svg"><g><path d="m256.001 0c-113.929 0-205.83 91.255-206.537 205.23-.294 47.419 15.876 93.833 45.533 130.691 29.211 36.306 70.191 61.912 115.39 72.103.986.223 1.825.865 2.304 1.766l15.637 29.406c-13.688.681-26.728 1.865-38.897 3.537-4.104.564-6.973 4.348-6.409 8.451.559 4.069 4.302 6.972 8.451 6.41 13.81-1.898 28.813-3.147 44.661-3.72l9.66 18.166c2.011 3.782 5.921 6.133 10.205 6.133 4.293 0 8.199-2.357 10.207-6.132l9.66-18.166c27.083.986 52.156 4.001 71.024 8.564 21.935 5.305 28.49 11.036 29.201 12.82-.784 1.997-8.392 8.387-34.164 13.952-48.08 10.382-123.72 10.394-171.854 0-25.767-5.564-33.377-11.953-34.164-13.951.617-1.507 5.832-6.347 22.92-11.18 3.986-1.127 6.303-5.272 5.176-9.258s-5.273-6.308-9.258-5.176c-22.789 6.445-33.867 14.822-33.867 25.611.001 29.005 84.934 36.743 135.12 36.743s135.119-7.738 135.119-36.741c0-27.35-74.432-34.301-107.463-36.037l15.651-29.433c.478-.898 1.312-1.54 2.289-1.761 44.989-10.14 85.837-35.577 115.02-71.627 29.614-36.584 45.924-82.703 45.924-129.861 0-113.887-92.653-206.54-206.539-206.54zm42.297 393.396c-5.244 1.182-9.704 4.591-12.235 9.352l-21.196 39.86c-.043.078-.085.157-.126.237l-8.741 16.439c-6.337-11.917-24.61-46.278-30.064-56.536-2.532-4.763-6.997-8.173-12.25-9.356-87.02-19.619-149.776-98.713-149.222-188.067.651-104.946 86.574-190.325 191.537-190.325 105.615 0 191.54 85.925 191.54 191.54-.001 88.782-62.766 167.366-149.243 186.856z"/><path d="m256 47.231c-87.843 0-159.309 71.466-159.309 159.309 0 54.614 27.5 104.814 73.561 134.285 3.489 2.231 8.126 1.214 10.359-2.275 2.232-3.489 1.214-8.127-2.275-10.359-41.731-26.7-66.645-72.177-66.645-121.65 0-79.572 64.736-144.309 144.309-144.309 79.572 0 144.308 64.736 144.308 144.309s-64.737 144.308-144.308 144.308c-16.378 0-32.443-2.72-47.748-8.085-3.909-1.367-8.189.688-9.559 4.598-1.37 3.908.688 8.188 4.597 9.559 16.903 5.925 34.637 8.929 52.71 8.929 87.843 0 159.308-71.466 159.308-159.309s-71.466-159.31-159.308-159.31z"/><path d="m226.201 143.794v45.246c0 4.143 3.358 7.5 7.5 7.5h45.973c16.609 0 30.123-13.513 30.123-30.122 0-16.61-13.513-30.124-30.123-30.124h-45.973c-4.142 0-7.5 3.357-7.5 7.5zm15 7.5h38.473c8.339 0 15.123 6.784 15.123 15.124 0 8.338-6.785 15.122-15.123 15.122h-38.473z"/><path d="m223.471 101.294h-7.27c-13.785 0-25 11.215-25 25v160.492c0 13.785 11.215 25 25 25s25-11.215 25-25v-55.246h38.473c35.908 0 65.123-29.214 65.123-65.122 0-17.407-6.771-33.766-19.066-46.06-12.294-12.294-28.651-19.064-46.057-19.064h-21.204c-4.142 0-7.5 3.357-7.5 7.5s3.358 7.5 7.5 7.5h21.204c13.399 0 25.99 5.21 35.451 14.671 9.462 9.462 14.673 22.052 14.672 35.453 0 27.638-22.485 50.122-50.123 50.122h-45.973c-4.142 0-7.5 3.357-7.5 7.5v62.746c0 5.514-4.486 10-10 10s-10-4.486-10-10v-160.492c0-5.514 4.486-10 10-10h7.27c4.142 0 7.5-3.357 7.5-7.5s-3.358-7.5-7.5-7.5z"/></g></svg>