<svg height="512" viewBox="0 0 512 512" width="512" xmlns="http://www.w3.org/2000/svg"><g id="Outline"><path d="m136 288h-88a32.036 32.036 0 0 1 -32-32v-208a32.036 32.036 0 0 1 32-32h208a32.036 32.036 0 0 1 32 32v136h-16v-136a16.019 16.019 0 0 0 -16-16h-208a16.019 16.019 0 0 0 -16 16v208a16.019 16.019 0 0 0 16 16h88z"/><path d="m120 256h-48a8 8 0 0 1 -8-8v-192a8 8 0 0 1 8-8h96a72 72 0 0 1 0 144h-40v56a8 8 0 0 1 -8 8zm-40-16h32v-56a8 8 0 0 1 8-8h48a56 56 0 0 0 0-112h-88zm88-96h-48a8 8 0 0 1 -8-8v-32a8 8 0 0 1 8-8h48a24 24 0 0 1 0 48zm-40-16h40a8 8 0 0 0 0-16h-40z"/><path d="m485.657 330.343a35.057 35.057 0 0 0 -23.882-10.317l-32.716-98.147a31.965 31.965 0 0 0 -30.359-21.879h-189.4a31.965 31.965 0 0 0 -30.359 21.879l-32.716 98.147a35.3 35.3 0 0 0 -34.225 35.287v60.687a32.036 32.036 0 0 0 32 32h56v32h-48v-16h-16v16a16.019 16.019 0 0 0 16 16h48a16.019 16.019 0 0 0 16-16v-32h176v32a16.019 16.019 0 0 0 16 16h48a16.019 16.019 0 0 0 16-16v-33.013a32.057 32.057 0 0 0 24-30.987v-60.687a35.082 35.082 0 0 0 -10.343-24.97zm-276.357-114.343h189.4a15.986 15.986 0 0 1 15.181 10.941l1.686 5.059h-223.134l1.686-5.059a15.986 15.986 0 0 1 15.181-10.941zm-22.2 32h233.8l24 72h-281.8zm268.9 232h-48v-32h48l.008 32zm24-64a16.019 16.019 0 0 1 -16 16h-320a16.019 16.019 0 0 1 -16-16v-60.687a19.314 19.314 0 0 1 19.313-19.313h313.374a19.314 19.314 0 0 1 19.313 19.313z"/><path d="m176 352a32 32 0 1 0 32 32 32.036 32.036 0 0 0 -32-32zm0 48a16 16 0 1 1 16-16 16.019 16.019 0 0 1 -16 16z"/><path d="m432 352a32 32 0 1 0 32 32 32.036 32.036 0 0 0 -32-32zm0 48a16 16 0 1 1 16-16 16.019 16.019 0 0 1 -16 16z"/><path d="m224 360h160v16h-160z"/><path d="m224 392h160v16h-160z"/></g></svg>